<?xml version="1.0" encoding="UTF-8"?>
<svg id="Layer_1" xmlns="http://www.w3.org/2000/svg" version="1.1" viewBox="0 0 968.31 249.18">
  <!-- Generator: Adobe Illustrator 29.5.1, SVG Export Plug-In . SVG Version: 2.1.0 Build 141)  -->
  <defs>
    <style>
      .st0 {
        fill: #f26769;
      }
    </style>
  </defs>
  <path class="st0" d="M122.8,148.07l-26.4,26.4,24.79,24.79c-26.69,15.27-61.24,11.65-84.12-11.01l26.35-26.35c-27.21-27.4-27.16-71.67.17-99,27.3-27.31,71.52-27.38,98.93-.23l-26.35,26.35c10.2,10.27,16.51,22.91,19.04,36.14h37.81c-2.82-22.82-12.93-44.91-30.39-62.47l26.35-26.35c-41.98-41.79-109.88-41.74-151.79.17-41.88,41.88-41.96,109.74-.23,151.72l-26.35,26.35c41.98,41.79,109.88,41.74,151.79-.17,4.57-4.57,8.6-9.46,12.17-14.58l-.12-.12-51.65-51.65Z"/>
  <g>
    <g>
      <path class="st0" d="M429.51,171.27h-19.34l-23.95-35.73h-10.82v35.73h-17.61v-89.7h34.06c20.49,0,29.29,12.56,29.29,27.06,0,12.11-6.21,21.68-17.32,24.96l25.68,37.68ZM375.4,122.68h13.56c10.97,0,14.86-5.98,14.86-13.91s-3.89-14.2-14.86-14.2h-13.56v28.11Z"/>
      <path class="st0" d="M440.05,171.27v-89.7h17.61v89.7h-17.61Z"/>
      <path class="st0" d="M514.08,95.77v75.5h-17.6v-75.5h-29.29v-14.2h76.19v14.2h-29.29Z"/>
      <path class="st0" d="M607.01,173.06c-14.43,0-24.82-5.83-30.74-11.21l4.04-14.35c5.77,5.68,14.86,12.11,26.7,12.11,8.66,0,15.3-4.49,15.3-12.41,0-7.47-4.04-11.06-18.18-14.95-18.18-4.63-25.4-14.65-25.4-27.51,0-14.65,11.26-25.27,29.87-25.27,10.68,0,20.21,4.19,25.98,8.82l-3.75,12.71c-6.06-4.19-14.72-7.77-22.37-7.77-8.52,0-13.56,3.89-13.56,10.32,0,5.23,3.18,9.12,14.86,12.26,20.2,5.23,28.86,14.05,28.86,29.6,0,19.29-15.3,27.66-31.61,27.66Z"/>
      <path class="st0" d="M684.65,138.68h-15.3v32.59h-17.61v-89.7h32.9c20.78,0,30.01,13.15,30.01,28.56s-9.24,28.56-30.01,28.56ZM681.76,94.57h-12.41v31.1h12.41c11.4,0,15.44-7.03,15.44-15.55s-4.04-15.55-15.44-15.55Z"/>
      <path class="st0" d="M778.74,171.27l-8.8-22.13h-35.07l-8.8,22.13h-17.03l36.8-89.7h13.71l36.8,89.7h-17.61ZM752.48,103.84l-12.85,32.59h25.54l-12.7-32.59Z"/>
      <path class="st0" d="M902.72,171.27v-89.7h56.42v14.2h-38.82v21.08h31.61v14.2h-31.61v26.02h38.82v14.2h-56.42Z"/>
    </g>
    <path class="st0" d="M331.68,160.05c2.01-2.01,3.78-4.16,5.35-6.41l-.05-.05-2.82-2.82-9-9-10.87-10.87-11.6,11.6,10.92,10.92c-11.73,6.72-26.94,5.1-37-4.86-11.95-12.04-11.92-31.49.08-43.5,12-12,31.43-12.03,43.48-.1h0c4.48,4.51,7.26,10.07,8.37,15.88h16.62c-1.24-10.03-5.68-19.74-13.35-27.46h0s0,0-.01-.01c0,0-.01-.01-.02-.02h0c-18.45-18.34-48.27-18.3-66.68.1-18.41,18.41-18.44,48.23-.1,66.68h0s.01.01.02.02c0,0,0,0,0,0h0c18.45,18.34,48.27,18.3,66.68-.1Z"/>
    <path class="st0" d="M836.66,156.49c-5.87-1.12-11.48-3.92-16.03-8.45h0c-12.04-12.16-12.01-31.77.1-43.89,12.11-12.11,31.73-12.15,43.89-.1h0c4.52,4.56,7.32,10.17,8.45,16.03h16.77c-1.25-10.12-5.74-19.92-13.48-27.72h0s0,0-.01-.01c0,0-.01-.01-.02-.02h0c-18.63-18.51-48.73-18.48-67.31.1-18.58,18.58-18.61,48.68-.1,67.31h0s.01.01.02.02c0,0,0,0,.01.01h0c7.79,7.74,17.59,12.23,27.72,13.48v-16.77Z"/>
  </g>
</svg>